<?xml version="1.0" encoding="UTF-8"?>
<!-- Generated by Pixelmator Pro 3.4.2 -->
<svg width="458" height="458" viewBox="0 0 458 458" xmlns="http://www.w3.org/2000/svg">
    <path id="Path" fill="#ffffff" stroke="none" d="M 196.800156 57.733032 C 179.333466 89.733063 164.666794 116.39975 164.133453 116.799744 C 163.733459 117.333099 127.333427 112.666412 83.333397 106.666412 C 39.333363 100.533081 3.200002 95.733063 2.933336 95.866394 C 2.800002 96.133057 24.53335 125.466431 51.33337 161.199799 L 100.133408 226.133179 L 74.133385 259.733215 C 59.733376 278.266541 37.333359 307.066559 24.266685 323.999908 C 11.066675 340.799927 0.4 354.799927 0.533334 354.933289 C 0.800001 355.199921 151.733444 337.066589 158.133453 335.999908 L 162.400116 335.19989 L 195.466812 393.999939 C 213.600159 426.266663 228.800171 452.266693 229.333496 451.733307 C 229.866821 451.199982 244.266846 425.199951 261.200195 393.999939 C 278.266876 362.799927 292.66687 336.799927 293.333557 336.13324 C 293.866882 335.599915 329.733582 339.866577 374.000275 345.999908 C 417.733612 351.866577 453.866974 356.533264 454.133667 356.266602 C 454.533661 355.866577 368.933624 241.066513 358.5336 227.866486 C 357.733582 226.933167 374.800293 203.999817 406.800293 162.666443 C 433.866974 127.733093 455.867004 98.666412 455.46701 98.266388 C 455.066986 97.866394 418.933655 101.866425 375.200256 107.199738 C 331.466919 112.533081 295.200195 116.39975 294.66687 115.733093 C 294.133545 115.199768 280.000214 90.39975 263.333527 60.666382 C 246.66684 30.933014 232.000168 5.066345 230.800171 3.066345 L 228.66684 -0.40033 L 196.800156 57.733032 Z M 282.266876 129.333099 C 281.600189 130.799774 233.600159 209.866486 232.533493 211.199814 C 232.26683 211.466492 232.000168 171.599792 232.000168 122.533081 L 232.000168 33.333038 L 257.466858 80.533051 C 271.466858 106.39975 282.533539 128.39975 282.266876 129.333099 Z M 110.266747 124.533081 C 142.000107 128.666412 168.133453 132.39978 168.400131 132.799774 C 169.866791 134.533112 215.73349 213.999817 215.20015 213.999817 C 214.400162 213.999817 46.266701 117.733093 44.80003 116.533081 C 44.133362 115.866425 45.600033 115.733093 48.133366 116.133087 C 50.666702 116.533081 78.533394 120.266418 110.266747 124.533081 Z M 417.066956 125.733093 C 416.133636 127.066437 398.933655 149.599762 378.800293 175.733124 L 342.266937 223.33316 L 294.933533 223.33316 C 268.933533 223.33316 248.000183 222.933151 248.533508 222.399826 C 249.466858 221.466507 417.600311 123.333099 418.400299 123.333099 C 418.666962 123.333099 418.000305 124.39975 417.066956 125.733093 Z M 208.533478 229.73317 C 207.866806 230.399841 171.33345 251.733185 127.333427 277.333191 C 83.333397 302.799896 45.200035 324.933228 42.666698 326.399902 C 37.866695 329.466583 37.466694 329.733246 92.000069 258.933167 L 115.200089 228.666504 L 162.533447 228.666504 C 188.533463 228.666504 209.333481 229.199829 208.533478 229.73317 Z M 330.000244 287.19989 C 376.133606 313.733215 412.666962 335.333252 411.333618 335.333252 C 405.066956 335.333252 290.133545 319.333252 289.333557 318.399902 C 288.66687 317.599915 250.000183 251.199844 242.933502 238.79985 C 241.733521 236.666504 244.000183 237.866501 330.000244 287.19989 Z M 226.666824 330.266571 C 226.666824 384.933289 226.133499 417.999969 225.466843 417.333313 C 224.800171 416.533295 213.066818 395.333282 199.466827 370.13327 L 174.80014 324.13324 L 177.733459 319.333252 C 213.20015 260.799866 224.800171 242.133179 225.733505 241.999847 C 226.26683 241.999847 226.666824 281.733215 226.666824 330.266571 Z"/>
</svg>
