<svg version="1" xmlns="http://www.w3.org/2000/svg" width="458.667" height="458.667" viewBox="0 0 344.000000 344.000000"><path d="M147.6 43.8c-13.1 24-24.1 44-24.5 44.3-.3.4-27.6-3.1-60.6-7.6-33-4.6-60.1-8.2-60.3-8.1-.1.2 16.2 22.2 36.3 49l36.6 48.7-19.5 25.2c-10.8 13.9-27.6 35.5-37.4 48.2C8.3 256.1.3 266.6.4 266.7c.2.2 113.4-13.4 118.2-14.2l3.2-.6 24.8 44.1c13.6 24.2 25 43.7 25.4 43.3.4-.4 11.2-19.9 23.9-43.3 12.8-23.4 23.6-42.9 24.1-43.4.4-.4 27.3 2.8 60.5 7.4 32.8 4.4 59.9 7.9 60.1 7.7.3-.3-63.9-86.4-71.7-96.3-.6-.7 12.2-17.9 36.2-48.9 20.3-26.2 36.8-48 36.5-48.3-.3-.3-27.4 2.7-60.2 6.7-32.8 4-60 6.9-60.4 6.4-.4-.4-11-19-23.5-41.3C185 23.7 174 4.3 173.1 2.8L171.5.2l-23.9 43.6zm64.1 53.7c-.5 1.1-36.5 60.4-37.3 61.4-.2.2-.4-29.7-.4-66.5V25.5l19.1 35.4c10.5 19.4 18.8 35.9 18.6 36.6zm-129-3.6c23.8 3.1 43.4 5.9 43.6 6.2 1.1 1.3 35.5 60.9 35.1 60.9-.6 0-126.7-72.2-127.8-73.1-.5-.5.6-.6 2.5-.3s22.8 3.1 46.6 6.3zm230.1.9c-.7 1-13.6 17.9-28.7 37.5L256.7 168h-35.5c-19.5 0-35.2-.3-34.8-.7.7-.7 126.8-74.3 127.4-74.3.2 0-.3.8-1 1.8zm-156.4 78c-.5.5-27.9 16.5-60.9 35.7-33 19.1-61.6 35.7-63.5 36.8-3.6 2.3-3.9 2.5 37-50.6L86.4 172h35.5c19.5 0 35.1.4 34.5.8zm91.1 43.1c34.6 19.9 62 36.1 61 36.1-4.7 0-90.9-12-91.5-12.7-.5-.6-29.5-50.4-34.8-59.7-.9-1.6.8-.7 65.3 36.3zM170 248.2c0 41-.4 65.8-.9 65.3-.5-.6-9.3-16.5-19.5-35.4l-18.5-34.5 2.2-3.6c26.6-43.9 35.3-57.9 36-58 .4 0 .7 29.8.7 66.2z"/></svg>