<?xml version="1.0" encoding="UTF-8"?>
<!-- Generated by Pixelmator Pro 3.6.18 -->
<svg width="756" height="752" viewBox="0 0 756 752" xmlns="http://www.w3.org/2000/svg">
    <path id="Logo" fill="#ffffff" stroke="none" d="M 755.66748 162.38446 L 487.60614 194.847351 L 377.967896 0 L 270.546631 196.083618 L 3.285405 159.513672 L 165.416428 375.408325 L 0.086496 588.578369 L 268.147827 556.115479 L 377.786041 751 L 485.207336 554.879272 L 752.505249 591.486572 L 590.337769 375.589752 L 755.667664 162.384277 L 755.667236 162.383728 L 755.66748 162.383728 L 755.66748 162.384277 L 755.66748 162.38446 Z M 386.583557 380.134003 L 717.607178 569.711792 L 478.445984 537.830322 L 386.583771 380.134003 L 386.583557 380.134186 L 386.583557 380.134003 Z M 182.901978 374.644867 L 365.390106 374.644867 L 35.711796 566.257385 L 182.901978 374.644867 Z M 369.716034 369.1203 L 38.692635 179.580078 L 277.853821 211.423706 L 369.716034 369.120026 L 369.716034 369.1203 Z M 378.149811 382.024719 L 378.149811 722.571777 L 280.762054 541.684143 L 378.149811 382.023743 L 378.149811 382.024261 L 378.149811 382.024445 L 378.149811 382.024719 Z M 475.828217 209.31604 L 378.149811 368.973877 L 378.149811 28.462402 L 475.828217 209.31604 Z M 720.58783 183.032532 L 573.397156 374.644867 L 390.908997 374.644867 L 720.588013 183.032532 L 720.58783 183.032532 Z"/>
</svg>
