<?xml version="1.0" encoding="UTF-8"?>
<!-- Generated by Pixelmator Pro 3.8 -->
<svg width="1024" height="1024" viewBox="0 0 1024 1024" xmlns="http://www.w3.org/2000/svg">
    <path id="Path" fill="#ffffff" stroke="none" d="M 295.535339 209.993286 L 354.058044 151.470581 L 214.637726 12.048767 C 198.572662 -4.016235 172.180069 -4.016235 156.113571 12.048767 C 140.048508 28.113831 140.048508 54.50647 156.113571 70.571533 Z M 879.616394 733.828979 L 821.666016 675.306213 C 750.522156 746.451477 652.984314 789.48291 542.823914 789.48291 C 323.64917 789.48291 151.524994 617.3573 151.524994 398.75769 C 151.524994 289.171082 195.128708 191.059448 265.127899 121.061707 L 204.882492 64.260254 C 120.542374 149.175537 68.904686 267.368469 68.904686 398.75769 C 68.904686 663.257446 278.322754 872.676941 542.823914 872.676941 C 675.360657 872.676941 793.553589 819.891724 879.616394 733.828979 Z M 784.372131 581.784668 L 722.982056 637.438599 L 884.206421 798.662964 C 900.271484 814.154236 926.664063 814.154236 942.729126 798.662964 C 958.794189 782.5979 958.794189 755.631531 942.729126 740.140259 Z M 501.512329 850.87439 L 501.512329 971.362305 L 584.134094 971.362305 L 584.134094 850.87439 Z M 375.2883 1023 L 710.359558 1023 C 732.73584 1023 751.668274 1004.639954 751.668274 981.689819 C 751.668274 959.313538 732.73584 940.3797 710.359558 940.3797 L 375.2883 940.3797 C 352.911987 940.3797 333.976715 959.313538 333.976715 981.689819 C 333.976715 1004.639954 352.911987 1023 375.2883 1023 Z M 542.823914 729.238892 C 725.275635 729.238892 873.305115 581.210876 873.305115 398.75769 C 873.305115 216.304565 725.275635 68.276489 542.823914 68.276489 C 360.369324 68.276489 212.342712 216.304565 212.342712 398.75769 C 212.342712 581.210876 360.369324 729.238892 542.823914 729.238892 Z M 542.823914 651.782349 C 392.500885 651.782349 289.799255 549.08075 289.799255 398.75769 C 289.799255 248.434631 392.500885 145.733032 542.823914 145.733032 C 693.145569 145.733032 795.848572 248.434631 795.848572 398.75769 C 795.848572 549.08075 693.145569 651.782349 542.823914 651.782349 Z"/>
</svg>
