<?xml version="1.0" encoding="UTF-8"?>
<!-- Generated by Pixelmator Pro 4.0 -->
<svg width="18" height="22" viewBox="0 0 18 22" xmlns="http://www.w3.org/2000/svg">
    <path id="Path" fill="#ffffff" fill-opacity="0.85" stroke="none" visibility="hidden" d="M 9.226563 14.529249 L 12.453125 11.419874 L 12.6875 10.904249 C 12.6855 10.5137 12.373 10.2207 11.9727 10.2207 L 11.445313 10.458937 L 9.929688 12.068312 L 9.375 12.662062 L 9.445313 11.185499 L 9.445313 1.247999 C 9.44336 0.83593 9.0918 0.494141 8.67188 0.494141 C 8.25195 0.494141 7.89062 0.83593 7.89062 1.24609 L 7.890625 11.185499 L 7.953125 12.662062 L 7.398438 12.068312 L 5.890625 10.458937 L 5.351563 10.224562 C 4.94141 10.2207 4.64844 10.5137 4.64844 10.904301 L 4.882813 11.419874 L 8.109375 14.529249 L 8.671875 14.794874 Z M 13.242188 21.372999 C 15.8691 21.372999 17.334 19.917999 17.334 17.290998 L 17.335938 9.771437 C 17.334 7.154289 15.8691 5.689449 13.2422 5.689449 L 11.28125 5.693312 L 11.28125 7.263624 L 13.242188 7.263624 C 14.8535 7.261721 15.7617 8.16992 15.7617 9.771501 L 15.757813 17.294874 C 15.7617 18.9023 14.8535 19.800798 13.2422 19.800798 L 4.078125 19.802687 C 2.48047 19.800798 1.57227 18.9023 1.57227 17.290998 L 1.570313 9.771437 C 1.57227 8.16992 2.48047 7.261721 4.08203 7.261721 L 6.054688 7.263624 L 6.054688 5.693312 L 4.078125 5.693312 C 1.45508 5.689449 0 7.154289 0 9.771501 L 0 17.294874 C 0 19.917999 1.45508 21.372999 4.08203 21.372999 Z"/>
    <linearGradient id="linearGradient1" x1="8.667969" y1="0.494141" x2="8.667969" y2="21.372999" gradientUnits="userSpaceOnUse">
        <stop offset="0" stop-color="#f6cf2a" stop-opacity="1"/>
        <stop offset="0.511067" stop-color="#f5126d" stop-opacity="1"/>
        <stop offset="1" stop-color="#8e02ee" stop-opacity="1"/>
    </linearGradient>
    <path id="Path-copy" fill="url(#linearGradient1)" fill-opacity="0.85" stroke="none" d="M 9.226563 14.529249 L 12.453125 11.419874 L 12.6875 10.904249 C 12.6855 10.5137 12.373 10.2207 11.9727 10.2207 L 11.445313 10.458937 L 9.929688 12.068312 L 9.375 12.662062 L 9.445313 11.185499 L 9.445313 1.247999 C 9.44336 0.83593 9.0918 0.494141 8.67188 0.494141 C 8.25195 0.494141 7.89062 0.83593 7.89062 1.24609 L 7.890625 11.185499 L 7.953125 12.662062 L 7.398438 12.068312 L 5.890625 10.458937 L 5.351563 10.224562 C 4.94141 10.2207 4.64844 10.5137 4.64844 10.904301 L 4.882813 11.419874 L 8.109375 14.529249 L 8.671875 14.794874 Z M 13.242188 21.372999 C 15.8691 21.372999 17.334 19.917999 17.334 17.290998 L 17.335938 9.771437 C 17.334 7.154289 15.8691 5.689449 13.2422 5.689449 L 11.28125 5.693312 L 11.28125 7.263624 L 13.242188 7.263624 C 14.8535 7.261721 15.7617 8.16992 15.7617 9.771501 L 15.757813 17.294874 C 15.7617 18.9023 14.8535 19.800798 13.2422 19.800798 L 4.078125 19.802687 C 2.48047 19.800798 1.57227 18.9023 1.57227 17.290998 L 1.570313 9.771437 C 1.57227 8.16992 2.48047 7.261721 4.08203 7.261721 L 6.054688 7.263624 L 6.054688 5.693312 L 4.078125 5.693312 C 1.45508 5.689449 0 7.154289 0 9.771501 L 0 17.294874 C 0 19.917999 1.45508 21.372999 4.08203 21.372999 Z"/>
</svg>
