<?xml version="1.0" encoding="UTF-8"?>
<!-- Generated by Pixelmator Pro 4.0 -->
<svg width="18" height="22" viewBox="0 0 18 22" xmlns="http://www.w3.org/2000/svg">
    <g id="Group">
        <path id="Path" fill="#ffffff" fill-opacity="0.85" stroke="none" d="M 17.334 9.771501 L 17.334 17.290998 C 17.334 19.917999 15.8691 21.372999 13.2422 21.372999 L 4.08203 21.372999 C 1.45508 21.372999 0 19.917999 0 17.290998 L 0 9.771501 C 0 7.154289 1.45508 5.689449 4.08203 5.689449 L 6.05469 5.689449 L 6.05469 7.261721 L 4.08203 7.261721 C 2.48047 7.261721 1.57227 8.16992 1.57227 9.771501 L 1.57227 17.290998 C 1.57227 18.9023 2.48047 19.800798 4.08203 19.800798 L 13.2422 19.800798 C 14.8535 19.800798 15.7617 18.9023 15.7617 17.290998 L 15.7617 9.771501 C 15.7617 8.16992 14.8535 7.261721 13.2422 7.261721 L 11.2793 7.261721 L 11.2793 5.689449 L 13.2422 5.689449 C 15.8691 5.689449 17.334 7.154289 17.334 9.771501 Z"/>
        <path id="path1" fill="#ffffff" fill-opacity="0.85" stroke="none" d="M 8.67188 0.494141 C 8.25195 0.494141 7.89062 0.83593 7.89062 1.24609 L 7.89062 11.1875 L 8.00781 13.814401 C 8.02734 14.1758 8.31055 14.4687 8.67188 14.4687 C 9.02344 14.4687 9.30664 14.1758 9.32617 13.814401 L 9.44336 11.1875 L 9.44336 1.24609 C 9.44336 0.83593 9.0918 0.494141 8.67188 0.494141 Z M 5.35156 10.2207 C 4.94141 10.2207 4.64844 10.5137 4.64844 10.904301 C 4.64844 11.119101 4.73633 11.2754 4.88281 11.4219 L 8.10547 14.5273 C 8.30078 14.722701 8.4668 14.790999 8.67188 14.790999 C 8.86719 14.790999 9.0332 14.722701 9.22852 14.5273 L 12.4512 11.4219 C 12.5977 11.2754 12.6855 11.119101 12.6855 10.904301 C 12.6855 10.5137 12.373 10.2207 11.9727 10.2207 C 11.7773 10.2207 11.582 10.2988 11.4453 10.4551 L 9.93164 12.066401 L 8.67188 13.414101 L 7.40234 12.066401 L 5.88867 10.4551 C 5.75195 10.2988 5.54688 10.2207 5.35156 10.2207 Z"/>
    </g>
</svg>
